<svg width="96" height="96" viewBox="0 0 96 96" fill="none" xmlns="http://www.w3.org/2000/svg">
<path d="M0 47.9138C0 21.4424 21.481 0 48 0C74.519 0 96 21.4424 96 47.9138C96 74.3851 74.519 95.8275 48 95.8275C21.481 95.8275 0 74.3851 0 47.9138Z" fill="#8CC909"/>
<path d="M32.9966 41.2269C33.0519 41.2269 33.1073 41.2821 33.1627 41.2821C33.2734 41.3374 33.3287 41.3374 33.4395 41.3927H33.4948C33.6056 41.3927 33.7163 41.4479 33.7716 41.4479H33.827C33.9377 41.4479 34.0485 41.4479 34.1592 41.3927C34.8789 41.2821 35.4879 40.6742 35.5433 39.9005C35.5433 39.8453 35.5433 39.8453 35.5433 39.79C35.5433 39.79 35.5433 39.79 35.5433 39.7347C35.5433 39.7347 35.5433 39.7347 35.5433 39.6795C35.5433 39.6242 35.5433 39.6242 35.5433 39.5689C35.5433 39.5689 35.5433 39.5689 35.5433 39.5137C35.5433 39.4031 35.4879 39.2926 35.4325 39.1821C35.3218 38.9058 35.1004 38.6295 34.8789 38.4637C34.8235 38.4084 34.7682 38.4084 34.7128 38.3531C34.5467 38.2426 34.3806 38.1873 34.1592 38.1321C34.0485 38.1321 33.9377 38.1321 33.827 38.1321H33.7716C33.3841 38.1321 32.9966 38.2979 32.7197 38.5189C32.609 38.5742 32.5537 38.6847 32.4429 38.7952C32.2215 39.0716 32.1107 39.4031 32.1107 39.79C32.1107 40.4532 32.4429 40.9505 32.9966 41.2269Z" fill="white"/>
<path d="M77.1211 42.7189L77.0104 42.5531C76.8443 37.082 76.0139 32.5504 73.7993 27.9634C71.4187 23.5976 67.8201 19.9502 63.6125 17.3528C54.1453 11.9369 41.8547 11.9369 32.3875 17.3528C28.1799 19.9502 24.5813 23.5976 22.2007 27.9634C19.9862 32.5504 19.1557 37.082 18.9896 42.5531C17.9931 45.4821 17.6609 50.898 19.045 54.3243C19.045 54.3243 19.045 54.3243 19.045 54.3796C21.7578 60.6244 27.9031 63.9402 34.436 65.3771C37.6471 66.0403 40.526 66.3166 43.9585 66.3718C45.2318 66.3166 46.5606 66.4271 47.8339 66.7034H47.8893C49.1073 66.9797 50.2145 67.5324 51.2111 68.1955C51.8201 68.6377 52.3737 69.0798 52.872 69.6324C56.8028 67.035 60.2907 66.2613 62.5052 65.985C64.2215 65.8192 65.9377 65.4876 67.5986 64.9902C79.7786 61.5639 81.1626 51.1743 77.1211 42.7189ZM68.7059 46.8084C65.5502 49.7927 60.1246 49.1848 57.744 45.4821C56.5813 43.6584 55.5294 42.111 54.2007 40.7294C53.0934 39.5689 52.7059 37.9662 53.2042 36.4741C53.5917 35.2583 54.2007 34.0977 54.9204 33.0477C56.8028 30.2845 59.4602 28.7371 62.5052 30.7266C66.5467 33.103 70.2561 37.7452 70.3114 42.6636C70.3114 44.1558 69.9239 45.7584 68.7059 46.8084ZM60.955 57.8059C60.8997 58.3586 60.6228 58.9665 60.1799 59.4639C59.4602 60.2928 58.353 60.5691 57.2457 60.6244C53.6471 60.956 50.0484 59.1875 47.9446 56.4243C45.8408 59.1875 42.2422 60.956 38.6436 60.6244C37.5917 60.5691 36.4291 60.2375 35.7093 59.4639C35.2111 58.8007 34.9343 58.1375 34.9343 57.4191C34.9343 56.8665 35.2664 56.3691 35.8754 56.4243C37.0934 56.7559 36.0969 57.4744 36.9273 58.4691C37.4256 58.9665 38.1453 59.077 38.8097 59.1323C42.3529 59.2981 45.5087 57.5296 47.2803 54.6559V52.0032C45.3979 51.8927 43.6263 49.9585 43.0173 48.7427C42.9066 48.5216 42.9066 48.2453 43.0727 48.0242C43.128 47.969 43.128 47.9137 43.1834 47.9137C43.2941 47.8032 43.3495 47.7479 43.4602 47.6926C43.6263 47.5821 44.7336 47.6374 44.955 47.6374C47.0588 47.6374 50.2145 47.6374 52.263 47.6374C52.5398 47.6926 52.7613 47.8032 52.872 48.0242C52.9827 48.2453 53.0381 48.5216 52.9273 48.7427C52.3183 50.0137 50.5467 51.8927 48.6644 52.0032V54.6559C50.3806 57.5296 53.5917 59.2981 57.135 59.1323C58.519 59.1323 59.5156 58.4138 59.4049 57.2533C59.3495 56.8664 59.6263 56.4796 60.0692 56.4243C60.8443 56.3138 61.0658 57.198 60.955 57.8059ZM25.6332 41.8347C25.8547 39.1267 27.2388 36.5294 29.0104 34.4846C30.5052 32.6609 32.3876 31.1688 34.2699 30.2845C35.5986 29.6214 36.9273 29.7319 38.1453 30.3951C40.3599 31.6109 41.91 34.2635 42.6298 36.4741C43.1834 38.0767 42.6298 39.7899 41.4118 40.9505C40.2491 42.2215 39.308 43.6584 38.3668 45.0952C37.0934 47.3611 34.5467 48.7979 31.9446 48.6874C29.9516 48.6874 27.737 47.6926 26.519 46.0347C25.744 44.8189 25.5225 43.3268 25.6332 41.8347Z" fill="white"/>
<path d="M62.5605 38.2426C62.5052 38.2426 62.4498 38.2426 62.3944 38.1874C62.3391 38.1874 62.2837 38.1874 62.2284 38.1874H62.173C61.2318 38.1874 60.4567 38.9058 60.4567 39.8453C60.4567 39.9006 60.4567 39.9558 60.4567 40.0111C60.4567 40.0664 60.4567 40.1216 60.4567 40.1216C60.5675 40.5637 60.7889 40.8953 61.1765 41.1716C61.2872 41.2269 61.3425 41.2822 61.4533 41.3374C61.6747 41.4479 61.8962 41.4479 62.1176 41.4479H62.173C62.2284 41.4479 62.2837 41.4479 62.3391 41.4479C62.3944 41.4479 62.4498 41.4479 62.5052 41.3927C63.2803 41.2269 63.8339 40.5637 63.8339 39.79C63.8339 39.0163 63.2803 38.4084 62.5605 38.2426Z" fill="white"/>
<path d="M61.7301 71.4562H54.2007C55.3633 73.5562 55.5848 75.7115 55.1419 77.7563C55.0865 78.0326 54.9758 78.3089 54.9204 78.5852C54.2007 80.7958 52.6505 82.73 50.4913 84.0011H61.7301C62.8927 84.0011 64.1107 83.1169 64.1107 81.9563V73.5009C64.1107 72.3404 62.8927 71.4562 61.7301 71.4562Z" fill="white"/>
<path d="M60.0692 56.4244C59.6263 56.4797 59.3495 56.8665 59.4048 57.2534C59.5156 58.4139 58.519 59.1324 57.1349 59.1324C53.5917 59.2982 50.436 57.5297 48.6643 54.656V52.0033C50.5467 51.8928 52.3183 49.9586 52.9273 48.7427C53.038 48.5217 53.038 48.2454 52.872 48.0243C52.7612 47.8033 52.5398 47.6375 52.263 47.6375C50.2145 47.6375 47.0588 47.6375 44.955 47.6375C44.7335 47.6375 43.6263 47.5822 43.4602 47.6927C43.3495 47.748 43.2387 47.8033 43.1834 47.9138C43.128 47.9691 43.128 48.0243 43.0726 48.0243C42.9619 48.2454 42.9066 48.5217 43.0173 48.7427C43.6263 50.0138 45.3979 51.8928 47.2803 52.0033V54.656C45.564 57.5297 42.3529 59.2982 38.8097 59.1324C38.1453 59.1324 37.3702 58.9666 36.9273 58.4692C36.0969 57.4192 37.0934 56.756 35.8754 56.4244C35.2664 56.3139 34.9342 56.8665 34.9342 57.4192C34.9342 58.1376 35.2111 58.856 35.7093 59.4639C36.429 60.2929 37.5363 60.5692 38.6436 60.6245C42.2422 60.9561 45.8408 59.1876 47.9446 56.4244C50.0484 59.1876 53.647 60.9561 57.2457 60.6245C58.2976 60.5692 59.4602 60.2376 60.1799 59.4639C60.6782 58.8008 60.955 58.1376 60.955 57.4192C61.0104 56.8665 60.6782 56.3692 60.0692 56.4244Z" fill="black"/>
<path d="M69.5916 38.7952C68.429 35.8662 66.2145 33.2136 63.557 31.3346C61.3425 29.7872 59.3494 29.0688 56.9688 30.8372C55.1972 32.1636 53.4256 35.0373 53.038 37.3031C52.8719 38.5189 53.3148 39.79 54.2006 40.7295C54.5328 41.061 54.865 41.4479 55.1972 41.8347C56.0276 42.8847 56.9134 44.2111 57.7439 45.4821C57.91 45.7585 58.0761 45.9795 58.2975 46.2558C61.0103 49.5164 66.4913 49.5717 69.2595 46.2006C70.8096 44.0453 70.5328 41.1716 69.5916 38.7952ZM63.557 40.7295C62.8927 41.7242 61.2318 41.6689 60.6228 40.6189C60.0138 39.5689 60.8442 38.2426 62.0622 38.1873C63.391 38.0768 64.3875 39.6242 63.557 40.7295Z" fill="black"/>
<path d="M77.7855 22.4923C76.8996 20.0054 74.7958 18.0159 72.1384 17.1317C69.2041 16.1369 66.3806 16.5238 64.1107 17.6843C64.4983 17.9606 64.8858 18.1817 65.2733 18.458C65.6609 18.7343 66.0484 19.0107 66.3806 19.287C67.3218 20.0054 68.2076 20.8344 69.038 21.6633C69.2041 21.8291 69.3702 21.9949 69.5363 22.1607C70.5329 23.2107 71.4187 24.316 72.2491 25.5318C72.6367 26.1397 73.0242 26.6923 73.4118 27.3002C73.5225 27.5213 73.6332 27.6871 73.7439 27.9081C74.2422 28.9582 74.6851 30.0082 75.0727 31.1134C75.1834 31.5003 75.3495 31.8871 75.4602 32.274C78.0069 29.9529 79.1695 26.3055 77.7855 22.4923Z" fill="black"/>
<path d="M29.0103 34.4846C27.2941 36.5847 25.91 39.1268 25.6332 41.8347C25.5224 43.3269 25.7439 44.819 26.5744 46.0348C29.4532 49.7927 35.6539 49.5164 38.2007 45.4822C39.1418 44.0453 40.0276 42.6637 41.0795 41.3926C41.6885 40.7295 42.3529 40.0663 42.6297 39.2373C42.9619 38.3531 43.0173 37.3584 42.6851 36.4189C42.0207 34.4294 40.692 32.1083 38.9757 30.8372C37.647 29.7872 35.82 29.4556 34.2699 30.2293C32.2768 31.2241 30.4498 32.7162 29.0103 34.4846ZM35.5432 39.5689C35.5432 39.6242 35.5432 39.7347 35.5432 39.79C35.5432 39.9005 35.5432 40.011 35.5432 40.1216C35.3771 41.2268 33.9377 41.8347 32.9965 41.2821C31.9446 40.7295 31.8339 39.1821 32.8858 38.5189C33.7716 37.8005 35.3218 38.3531 35.5432 39.5689Z" fill="black"/>
<path d="M20.4844 32.3294C20.8166 31.1689 21.2595 30.0636 21.7024 29.0136C21.8131 28.7925 21.9239 28.5715 21.9792 28.3504C22.0346 28.2399 22.09 28.0741 22.1453 27.9636C22.256 27.7425 22.3668 27.5767 22.4775 27.3557C22.6436 27.0241 22.865 26.7478 23.0311 26.4714C23.1972 26.1951 23.4187 25.8635 23.6401 25.5872C25.0242 23.5977 26.6297 21.8293 28.4014 20.2819C28.7336 19.9503 29.1211 19.674 29.5086 19.3977C30.2284 18.7898 31.0034 18.2371 31.8339 17.7397C29.564 16.5792 26.7405 16.1924 23.8062 17.1871C21.1488 18.0713 19.1003 20.0608 18.1592 22.5477C16.7751 26.3056 17.9931 29.9531 20.4844 32.3294Z" fill="black"/>
<path d="M54.2007 71.4562C53.3702 70.0746 52.3737 68.9693 51.2111 68.1957C49.1073 66.7035 46.5052 66.2614 43.9585 66.3719C40.7474 66.3167 37.5363 66.0404 34.436 65.3772C28.0138 63.9956 21.647 60.6798 19.045 54.3797C19.045 54.3797 19.045 54.3797 19.045 54.3244C17.6609 50.8428 17.8823 45.9243 18.9896 42.5532C17.5502 44.9848 12.4014 58.3034 17.9377 68.9693C22.8097 79.6905 33.7163 84.7748 44.4567 85.3274C51.9308 86.0459 57.9654 78.3089 54.2007 71.4562Z" fill="black"/>
</svg>
